<mxfile host="app.diagrams.net" agent="Mozilla/5.0 (Windows NT 10.0; Win64; x64) AppleWebKit/537.36 (KHTML, like Gecko) Chrome/135.0.0.0 Safari/537.36" version="26.2.13">
  <diagram id="C5RBs43oDa-KdzZeNtuy" name="Page-1">
    <mxGraphModel dx="1491" dy="820" grid="1" gridSize="10" guides="1" tooltips="1" connect="1" arrows="1" fold="1" page="1" pageScale="1" pageWidth="1169" pageHeight="827" math="0" shadow="0">
      <root>
        <mxCell id="WIyWlLk6GJQsqaUBKTNV-0" />
        <mxCell id="WIyWlLk6GJQsqaUBKTNV-1" parent="WIyWlLk6GJQsqaUBKTNV-0" />
        <mxCell id="cNi_0pJhO4MBycj55FC7-16" style="edgeStyle=orthogonalEdgeStyle;rounded=0;orthogonalLoop=1;jettySize=auto;html=1;entryX=0;entryY=0.5;entryDx=0;entryDy=0;shape=flexArrow;" edge="1" parent="WIyWlLk6GJQsqaUBKTNV-1" source="cNi_0pJhO4MBycj55FC7-6" target="cNi_0pJhO4MBycj55FC7-8">
          <mxGeometry relative="1" as="geometry" />
        </mxCell>
        <mxCell id="cNi_0pJhO4MBycj55FC7-6" value="&lt;font style=&quot;font-size: 60px;&quot;&gt;加载数据&lt;/font&gt;" style="rounded=0;whiteSpace=wrap;html=1;" vertex="1" parent="WIyWlLk6GJQsqaUBKTNV-1">
          <mxGeometry x="90" y="110" width="280" height="210" as="geometry" />
        </mxCell>
        <mxCell id="cNi_0pJhO4MBycj55FC7-18" value="" style="edgeStyle=orthogonalEdgeStyle;rounded=0;orthogonalLoop=1;jettySize=auto;html=1;" edge="1" parent="WIyWlLk6GJQsqaUBKTNV-1" source="cNi_0pJhO4MBycj55FC7-8" target="cNi_0pJhO4MBycj55FC7-17">
          <mxGeometry relative="1" as="geometry" />
        </mxCell>
        <mxCell id="cNi_0pJhO4MBycj55FC7-8" value="&lt;font style=&quot;font-size: 60px;&quot;&gt;预处理&lt;/font&gt;&lt;div&gt;&lt;font style=&quot;font-size: 60px;&quot;&gt;R=10&lt;/font&gt;&lt;/div&gt;" style="rounded=0;whiteSpace=wrap;html=1;" vertex="1" parent="WIyWlLk6GJQsqaUBKTNV-1">
          <mxGeometry x="520" y="110" width="280" height="210" as="geometry" />
        </mxCell>
        <mxCell id="cNi_0pJhO4MBycj55FC7-20" value="" style="edgeStyle=orthogonalEdgeStyle;rounded=0;orthogonalLoop=1;jettySize=auto;html=1;" edge="1" parent="WIyWlLk6GJQsqaUBKTNV-1" source="cNi_0pJhO4MBycj55FC7-17" target="cNi_0pJhO4MBycj55FC7-19">
          <mxGeometry relative="1" as="geometry" />
        </mxCell>
        <mxCell id="cNi_0pJhO4MBycj55FC7-17" value="&lt;span style=&quot;font-size: 60px;&quot;&gt;椭球拟合&lt;/span&gt;" style="rounded=0;whiteSpace=wrap;html=1;" vertex="1" parent="WIyWlLk6GJQsqaUBKTNV-1">
          <mxGeometry x="880" y="110" width="280" height="210" as="geometry" />
        </mxCell>
        <mxCell id="cNi_0pJhO4MBycj55FC7-22" value="" style="edgeStyle=orthogonalEdgeStyle;rounded=0;orthogonalLoop=1;jettySize=auto;html=1;" edge="1" parent="WIyWlLk6GJQsqaUBKTNV-1" source="cNi_0pJhO4MBycj55FC7-19" target="cNi_0pJhO4MBycj55FC7-21">
          <mxGeometry relative="1" as="geometry" />
        </mxCell>
        <mxCell id="cNi_0pJhO4MBycj55FC7-25" value="" style="edgeStyle=orthogonalEdgeStyle;rounded=0;orthogonalLoop=1;jettySize=auto;html=1;" edge="1" parent="WIyWlLk6GJQsqaUBKTNV-1" source="cNi_0pJhO4MBycj55FC7-19" target="cNi_0pJhO4MBycj55FC7-24">
          <mxGeometry relative="1" as="geometry" />
        </mxCell>
        <mxCell id="cNi_0pJhO4MBycj55FC7-19" value="&lt;font style=&quot;font-size: 60px;&quot;&gt;参数&lt;/font&gt;&lt;div&gt;&lt;font style=&quot;font-size: 60px;&quot;&gt;v(10,1)&lt;/font&gt;&lt;/div&gt;" style="rounded=0;whiteSpace=wrap;html=1;" vertex="1" parent="WIyWlLk6GJQsqaUBKTNV-1">
          <mxGeometry x="1240" y="110" width="280" height="210" as="geometry" />
        </mxCell>
        <mxCell id="cNi_0pJhO4MBycj55FC7-21" value="&lt;font style=&quot;font-size: 60px;&quot;&gt;通用&lt;/font&gt;" style="rounded=0;whiteSpace=wrap;html=1;" vertex="1" parent="WIyWlLk6GJQsqaUBKTNV-1">
          <mxGeometry x="1600" y="110" width="280" height="210" as="geometry" />
        </mxCell>
        <mxCell id="cNi_0pJhO4MBycj55FC7-27" value="" style="edgeStyle=orthogonalEdgeStyle;rounded=0;orthogonalLoop=1;jettySize=auto;html=1;" edge="1" parent="WIyWlLk6GJQsqaUBKTNV-1" source="cNi_0pJhO4MBycj55FC7-24" target="cNi_0pJhO4MBycj55FC7-26">
          <mxGeometry relative="1" as="geometry" />
        </mxCell>
        <mxCell id="cNi_0pJhO4MBycj55FC7-24" value="&lt;div&gt;&lt;font style=&quot;font-size: 60px;&quot;&gt;M(3,3)&lt;/font&gt;&lt;/div&gt;&lt;div&gt;&lt;font style=&quot;font-size: 60px;&quot;&gt;n(3,1)&lt;/font&gt;&lt;/div&gt;&lt;div&gt;&lt;font style=&quot;font-size: 60px;&quot;&gt;d(1,1)&lt;/font&gt;&lt;/div&gt;" style="rounded=0;whiteSpace=wrap;html=1;" vertex="1" parent="WIyWlLk6GJQsqaUBKTNV-1">
          <mxGeometry x="1240" y="400" width="280" height="210" as="geometry" />
        </mxCell>
        <mxCell id="cNi_0pJhO4MBycj55FC7-29" value="" style="edgeStyle=orthogonalEdgeStyle;rounded=0;orthogonalLoop=1;jettySize=auto;html=1;" edge="1" parent="WIyWlLk6GJQsqaUBKTNV-1" source="cNi_0pJhO4MBycj55FC7-26" target="cNi_0pJhO4MBycj55FC7-28">
          <mxGeometry relative="1" as="geometry" />
        </mxCell>
        <mxCell id="cNi_0pJhO4MBycj55FC7-26" value="&lt;div&gt;&lt;span style=&quot;font-size: 60px;&quot;&gt;A&lt;sup&gt;-1&lt;/sup&gt;和b&lt;/span&gt;&lt;/div&gt;" style="rounded=0;whiteSpace=wrap;html=1;" vertex="1" parent="WIyWlLk6GJQsqaUBKTNV-1">
          <mxGeometry x="1600" y="400" width="280" height="210" as="geometry" />
        </mxCell>
        <mxCell id="cNi_0pJhO4MBycj55FC7-28" value="&lt;font style=&quot;font-size: 30px;&quot;&gt;&lt;span style=&quot;display: inline-block; text-align: left; color: rgba(0, 0, 0, 0.75); font-family: &amp;quot;Fira Sans&amp;quot;, sans-serif; text-wrap-mode: nowrap; background-color: rgb(255, 255, 255); box-sizing: content-box !important;&quot; class=&quot;mjx-texatom&quot; id=&quot;MJXc-Node-1198&quot;&gt;&lt;span style=&quot;display: inline-block; box-sizing: content-box !important;&quot; class=&quot;mjx-mrow&quot; id=&quot;MJXc-Node-1199&quot;&gt;&lt;span style=&quot;display: inline-block; box-sizing: content-box !important;&quot; class=&quot;mjx-mi&quot; id=&quot;MJXc-Node-1200&quot;&gt;&lt;span style=&quot;display: block; white-space-collapse: preserve; font-family: MJXc-TeX-main-B, MJXc-TeX-main-Bx, MJXc-TeX-main-Bw; padding-top: 0.4em; padding-bottom: 0.356em; box-sizing: content-box !important;&quot; class=&quot;mjx-char MJXc-TeX-main-B&quot;&gt;h&lt;/span&gt;&lt;/span&gt;&lt;/span&gt;&lt;/span&gt;&lt;span style=&quot;display: inline-block; text-align: left; margin-left: 0.278em; color: rgba(0, 0, 0, 0.75); font-family: &amp;quot;Fira Sans&amp;quot;, sans-serif; text-wrap-mode: nowrap; background-color: rgb(255, 255, 255); box-sizing: content-box !important;&quot; class=&quot;mjx-mo MJXc-space3&quot; id=&quot;MJXc-Node-1201&quot;&gt;&lt;span style=&quot;display: block; white-space-collapse: preserve; font-family: MJXc-TeX-main-R, MJXc-TeX-main-Rw; padding-top: 0.091em; padding-bottom: 0.312em; box-sizing: content-box !important;&quot; class=&quot;mjx-char MJXc-TeX-main-R&quot;&gt;=&lt;/span&gt;&lt;/span&gt;&lt;span style=&quot;display: inline-block; text-align: left; margin-left: 0.278em; color: rgba(0, 0, 0, 0.75); font-family: &amp;quot;Fira Sans&amp;quot;, sans-serif; text-wrap-mode: nowrap; background-color: rgb(255, 255, 255); box-sizing: content-box !important;&quot; class=&quot;mjx-msubsup MJXc-space3&quot; id=&quot;MJXc-Node-1202&quot;&gt;&lt;span style=&quot;display: inline-block; box-sizing: content-box !important;&quot; class=&quot;mjx-base&quot;&gt;&lt;span style=&quot;display: inline-block; box-sizing: content-box !important;&quot; class=&quot;mjx-texatom&quot; id=&quot;MJXc-Node-1203&quot;&gt;&lt;span style=&quot;display: inline-block; box-sizing: content-box !important;&quot; class=&quot;mjx-mrow&quot; id=&quot;MJXc-Node-1204&quot;&gt;&lt;span style=&quot;display: inline-block; box-sizing: content-box !important;&quot; class=&quot;mjx-mi&quot; id=&quot;MJXc-Node-1205&quot;&gt;&lt;span style=&quot;display: block; white-space-collapse: preserve; font-family: MJXc-TeX-main-B, MJXc-TeX-main-Bx, MJXc-TeX-main-Bw; padding-top: 0.4em; padding-bottom: 0.356em; box-sizing: content-box !important;&quot; class=&quot;mjx-char MJXc-TeX-main-B&quot;&gt;A&lt;/span&gt;&lt;/span&gt;&lt;/span&gt;&lt;/span&gt;&lt;/span&gt;&lt;span style=&quot;display: inline-block; vertical-align: 0.636em; padding-left: 0px; padding-right: 0.071em; box-sizing: content-box !important;&quot; class=&quot;mjx-sup&quot;&gt;&lt;span style=&quot;display: inline-block; box-sizing: content-box !important;&quot; class=&quot;mjx-texatom&quot; id=&quot;MJXc-Node-1206&quot;&gt;&lt;span style=&quot;display: inline-block; box-sizing: content-box !important;&quot; class=&quot;mjx-mrow&quot; id=&quot;MJXc-Node-1207&quot;&gt;&lt;span style=&quot;display: inline-block; box-sizing: content-box !important;&quot; class=&quot;mjx-mo&quot; id=&quot;MJXc-Node-1208&quot;&gt;&lt;span style=&quot;display: block; white-space-collapse: preserve; font-family: MJXc-TeX-main-R, MJXc-TeX-main-Rw; padding-top: 0.312em; padding-bottom: 0.444em; box-sizing: content-box !important;&quot; class=&quot;mjx-char MJXc-TeX-main-R&quot;&gt;−&lt;/span&gt;&lt;/span&gt;&lt;span style=&quot;display: inline-block; box-sizing: content-box !important;&quot; class=&quot;mjx-mn&quot; id=&quot;MJXc-Node-1209&quot;&gt;&lt;span style=&quot;display: block; white-space-collapse: preserve; font-family: MJXc-TeX-main-R, MJXc-TeX-main-Rw; padding-top: 0.4em; padding-bottom: 0.356em; box-sizing: content-box !important;&quot; class=&quot;mjx-char MJXc-TeX-main-R&quot;&gt;1&lt;/span&gt;&lt;/span&gt;&lt;/span&gt;&lt;/span&gt;&lt;/span&gt;&lt;/span&gt;&lt;span style=&quot;display: inline-block; text-align: left; color: rgba(0, 0, 0, 0.75); font-family: &amp;quot;Fira Sans&amp;quot;, sans-serif; text-wrap-mode: nowrap; background-color: rgb(255, 255, 255); box-sizing: content-box !important;&quot; class=&quot;mjx-mo&quot; id=&quot;MJXc-Node-1210&quot;&gt;&lt;span style=&quot;display: block; white-space-collapse: preserve; font-family: MJXc-TeX-main-R, MJXc-TeX-main-Rw; padding-top: 0.444em; padding-bottom: 0.577em; box-sizing: content-box !important;&quot; class=&quot;mjx-char MJXc-TeX-main-R&quot;&gt;(&lt;/span&gt;&lt;/span&gt;&lt;span style=&quot;display: inline-block; text-align: left; color: rgba(0, 0, 0, 0.75); font-family: &amp;quot;Fira Sans&amp;quot;, sans-serif; text-wrap-mode: nowrap; background-color: rgb(255, 255, 255); box-sizing: content-box !important;&quot; class=&quot;mjx-msubsup&quot; id=&quot;MJXc-Node-1211&quot;&gt;&lt;span style=&quot;display: inline-block; box-sizing: content-box !important;&quot; class=&quot;mjx-base&quot;&gt;&lt;span style=&quot;display: inline-block; box-sizing: content-box !important;&quot; class=&quot;mjx-texatom&quot; id=&quot;MJXc-Node-1212&quot;&gt;&lt;span style=&quot;display: inline-block; box-sizing: content-box !important;&quot; class=&quot;mjx-mrow&quot; id=&quot;MJXc-Node-1213&quot;&gt;&lt;span style=&quot;display: inline-block; box-sizing: content-box !important;&quot; class=&quot;mjx-mi&quot; id=&quot;MJXc-Node-1214&quot;&gt;&lt;span style=&quot;display: block; white-space-collapse: preserve; font-family: MJXc-TeX-main-B, MJXc-TeX-main-Bx, MJXc-TeX-main-Bw; padding-top: 0.4em; padding-bottom: 0.356em; box-sizing: content-box !important;&quot; class=&quot;mjx-char MJXc-TeX-main-B&quot;&gt;h&lt;/span&gt;&lt;/span&gt;&lt;/span&gt;&lt;/span&gt;&lt;/span&gt;&lt;span style=&quot;display: inline-block; vertical-align: -0.212em; padding-right: 0.071em; box-sizing: content-box !important;&quot; class=&quot;mjx-sub&quot;&gt;&lt;span style=&quot;display: inline-block; box-sizing: content-box !important;&quot; class=&quot;mjx-mi&quot; id=&quot;MJXc-Node-1215&quot;&gt;&lt;span style=&quot;display: block; white-space-collapse: preserve; font-family: MJXc-TeX-math-I, MJXc-TeX-math-Ix, MJXc-TeX-math-Iw; padding-top: 0.223em; padding-bottom: 0.268em; box-sizing: content-box !important;&quot; class=&quot;mjx-char MJXc-TeX-math-I&quot;&gt;m&lt;/span&gt;&lt;/span&gt;&lt;/span&gt;&lt;/span&gt;&lt;span style=&quot;display: inline-block; text-align: left; margin-left: 0.222em; color: rgba(0, 0, 0, 0.75); font-family: &amp;quot;Fira Sans&amp;quot;, sans-serif; text-wrap-mode: nowrap; background-color: rgb(255, 255, 255); box-sizing: content-box !important;&quot; class=&quot;mjx-mo MJXc-space2&quot; id=&quot;MJXc-Node-1216&quot;&gt;&lt;span style=&quot;display: block; white-space-collapse: preserve; font-family: MJXc-TeX-main-R, MJXc-TeX-main-Rw; padding-top: 0.312em; padding-bottom: 0.444em; box-sizing: content-box !important;&quot; class=&quot;mjx-char MJXc-TeX-main-R&quot;&gt;−&lt;/span&gt;&lt;/span&gt;&lt;span style=&quot;display: inline-block; text-align: left; margin-left: 0.222em; color: rgba(0, 0, 0, 0.75); font-family: &amp;quot;Fira Sans&amp;quot;, sans-serif; text-wrap-mode: nowrap; background-color: rgb(255, 255, 255); box-sizing: content-box !important;&quot; class=&quot;mjx-texatom MJXc-space2&quot; id=&quot;MJXc-Node-1217&quot;&gt;&lt;span style=&quot;display: inline-block; box-sizing: content-box !important;&quot; class=&quot;mjx-mrow&quot; id=&quot;MJXc-Node-1218&quot;&gt;&lt;span style=&quot;display: inline-block; box-sizing: content-box !important;&quot; class=&quot;mjx-mi&quot; id=&quot;MJXc-Node-1219&quot;&gt;&lt;span style=&quot;display: block; white-space-collapse: preserve; font-family: MJXc-TeX-main-B, MJXc-TeX-main-Bx, MJXc-TeX-main-Bw; padding-top: 0.4em; padding-bottom: 0.356em; box-sizing: content-box !important;&quot; class=&quot;mjx-char MJXc-TeX-main-B&quot;&gt;b&lt;/span&gt;&lt;/span&gt;&lt;/span&gt;&lt;/span&gt;&lt;span style=&quot;display: inline-block; text-align: left; color: rgba(0, 0, 0, 0.75); font-family: &amp;quot;Fira Sans&amp;quot;, sans-serif; text-wrap-mode: nowrap; background-color: rgb(255, 255, 255); box-sizing: content-box !important;&quot; class=&quot;mjx-mo&quot; id=&quot;MJXc-Node-1220&quot;&gt;&lt;span style=&quot;display: block; white-space-collapse: preserve; font-family: MJXc-TeX-main-R, MJXc-TeX-main-Rw; padding-top: 0.444em; padding-bottom: 0.577em; box-sizing: content-box !important;&quot; class=&quot;mjx-char MJXc-TeX-main-R&quot;&gt;)&lt;/span&gt;&lt;/span&gt;&lt;/font&gt;" style="rounded=0;whiteSpace=wrap;html=1;" vertex="1" parent="WIyWlLk6GJQsqaUBKTNV-1">
          <mxGeometry x="1960" y="400" width="280" height="210" as="geometry" />
        </mxCell>
      </root>
    </mxGraphModel>
  </diagram>
</mxfile>
